<svg width="182" height="182" viewBox="0 0 182 182" fill="none" xmlns="http://www.w3.org/2000/svg">
<path d="M146.584 43.0736L99.0361 17.4419C94.0311 14.7119 87.9644 14.7119 82.9594 17.4419L35.4118 43.0736C31.9235 44.9694 29.8001 48.6094 29.8001 52.7802C29.8001 56.8752 31.9235 60.5911 35.4118 62.4869L82.9594 88.1183C85.4619 89.4833 88.2677 90.1658 90.9977 90.1658C93.7277 90.1658 96.5336 89.4833 99.0361 88.1183L146.584 62.4869C150.072 60.5911 152.195 56.9511 152.195 52.7802C152.195 48.6094 150.072 44.9694 146.584 43.0736Z" fill="white"/>
<path d="M75.1508 96.9909L30.8642 74.8475C27.4517 73.1792 23.5084 73.3309 20.3234 75.3025C17.0625 77.35 15.1667 80.7625 15.1667 84.5542V126.338C15.1667 133.543 19.1859 140.064 25.6317 143.325L69.8425 165.468C71.3592 166.227 73.0275 166.606 74.6959 166.606C76.6675 166.606 78.6392 166.075 80.3833 165.013C83.6442 163.042 85.54 159.553 85.54 155.762V113.978C85.6158 106.698 81.5967 100.176 75.1508 96.9909Z" fill="white"/>
<path d="M161.682 75.3017C158.421 73.3301 154.478 73.1026 151.141 74.8467L106.93 96.9901C100.484 100.251 96.4653 106.697 96.4653 113.977V155.761C96.4653 159.553 98.3611 163.041 101.622 165.013C103.366 166.074 105.338 166.605 107.309 166.605C108.978 166.605 110.646 166.226 112.163 165.468L156.374 143.324C162.819 140.063 166.839 133.618 166.839 126.338V84.5534C166.839 80.7617 164.943 77.3492 161.682 75.3017Z" fill="white"/>
</svg>
