<svg width="32" height="32" viewBox="0 0 32 32" fill="none" xmlns="http://www.w3.org/2000/svg">
<g clip-path="url(#clip0_55_36)">
<path d="M15.3713 8.00974C15.0428 6.21844 15.8897 4.37498 16.9098 3.13264C18.0339 1.76188 19.9631 0.710675 21.6118 0.595154C21.8903 2.47322 21.1238 4.30305 20.115 5.59736C19.0327 6.98784 17.1719 8.06612 15.3713 8.00974ZM25.0417 14.5006C25.5519 13.0773 26.5625 11.7967 28.1304 10.9327C26.546 8.95562 24.3215 7.80776 22.2223 7.80776C19.4449 7.80776 18.2705 9.13101 16.3414 9.13101C14.3541 9.13101 12.8465 7.80776 10.4408 7.80776C8.08169 7.80776 5.57054 9.24563 3.97797 11.7013C3.3924 12.609 2.99573 13.7367 2.7794 14.9927C2.17913 18.5162 3.0758 23.1055 5.75058 27.1806C7.0511 29.1579 8.78458 31.3852 11.0492 31.4046C13.0665 31.4243 13.6388 30.1148 16.3698 30.1013C19.1048 30.0858 19.6231 31.4182 21.6377 31.399C23.903 31.3798 25.732 28.9149 27.0325 26.9378C27.9585 25.519 28.3087 24.8024 29.0288 23.1983C25.3674 21.8175 23.8615 17.7829 25.0417 14.5006Z" fill="white"/>
</g>
<defs>
<clipPath id="clip0_55_36">
<rect width="30.87" height="30.87" fill="white" transform="translate(0.379883 0.565002)"/>
</clipPath>
</defs>
</svg>
