<svg width="234" height="234" viewBox="0 0 234 234" fill="none" xmlns="http://www.w3.org/2000/svg">
<path d="M143.23 117.007L187.807 161.584C190.703 164.48 190.703 169.182 187.807 172.078L172.078 187.807C169.182 190.703 164.487 190.703 161.584 187.807L117 143.23L72.4157 187.807C69.5199 190.703 64.8253 190.703 61.9296 187.807L46.1931 172.078C43.2973 169.182 43.2973 164.487 46.1931 161.584L90.7774 117.007L46.1931 72.423C43.2973 69.5273 43.2973 64.8253 46.1931 61.9296L61.9369 46.2004C64.8326 43.3046 69.5272 43.3046 72.423 46.2004L117 90.7847L161.584 46.2004C164.48 43.3046 169.175 43.3046 172.078 46.2004L187.807 61.9369C190.703 64.8326 190.703 69.5273 187.807 72.4303L143.23 117.007Z" fill="#383DFB"/>
</svg>
