<svg width="109" height="109" viewBox="0 0 109 109" fill="none" xmlns="http://www.w3.org/2000/svg">
<path fill-rule="evenodd" clip-rule="evenodd" d="M81.751 98.1C78.748 98.1 76.301 95.653 76.301 92.65C76.301 85.4506 87.201 85.4451 87.201 92.65C87.201 95.653 84.7539 98.1 81.751 98.1ZM16.351 98.1C13.348 98.1 10.901 95.653 10.901 92.65C10.901 89.6471 13.348 87.2 16.351 87.2C19.3539 87.2 21.801 89.6471 21.801 92.65C21.801 95.653 19.3539 98.1 16.351 98.1ZM21.801 21.8C15.7787 21.8 10.901 26.6778 10.901 32.7V77.3033C3.61434 79.892 -1.32873 87.424 0.31717 95.9205C1.56522 102.335 6.85167 107.55 13.2772 108.722C23.6595 110.608 32.701 102.683 32.701 92.65C32.701 85.5432 28.1393 79.5541 21.801 77.3033V76.3H76.301V77.3033C69.0143 79.892 64.0713 87.424 65.7172 95.9205C66.9652 102.335 72.2517 107.55 78.6772 108.722C89.0595 110.608 98.101 102.683 98.101 92.65C98.101 85.5432 93.5394 79.5541 87.201 77.3033V16.35C87.201 13.3416 89.6426 10.9 92.651 10.9H103.551C106.559 10.9 109.001 8.4584 109.001 5.45C109.001 2.4416 106.559 0 103.551 0H87.201C81.1788 0 76.301 4.87775 76.301 10.9V21.8H21.801Z" fill="white"/>
</svg>
