<svg width="72" height="24" viewBox="0 0 72 24" fill="none" xmlns="http://www.w3.org/2000/svg">
<path d="M27.2839 20.6622C24.6402 18.9591 21.0522 18.6602 15.2659 20.2656C9.09726 21.7152 7.04054 22.6444 4.33949 20.779C3.3018 19.8627 2.92977 18.3872 3.20757 16.2619C3.85191 12.7974 5.59317 9.46325 8.68615 5.76492C10.4125 3.84106 12.014 2.19004 14.1285 1.52705C15.7491 1.11114 15.5976 2.3848 15.4015 2.56696C15.1946 2.56696 14.847 2.59955 14.5783 2.77487C14.3603 2.94397 13.7618 3.48999 13.7296 4.22447C13.6833 5.34883 14.8468 5.11481 15.3487 4.49748C15.8896 3.80181 16.6891 2.46962 16.0603 1.22802C15.7967 0.78609 15.3412 0.480664 14.7758 0.376664C12.8395 0.266004 11.0362 1.18903 9.37187 2.20949C5.73216 4.73789 2.82062 8.24137 1.17314 12.0763C0.223384 14.3901 -0.635611 17.7046 0.651904 20.4023C1.64803 22.2741 3.71585 23.2684 6.18297 23.0604C7.9133 22.8786 10.0056 22.3194 11.4129 21.9817C12.8202 21.6434 20.0236 19.1674 22.3905 23.477C22.3905 23.477 23.1775 21.9491 25.1444 21.9165C26.7615 21.7673 29.0945 22.3847 30.7933 23.6324C30.2273 22.7812 28.6226 21.5267 27.2839 20.6622Z" fill="#F5EDED"/>
<path d="M16.0004 6.20037C14.6531 5.31642 11.9452 7.00634 9.77636 9.90509C7.793 12.5053 6.93658 15.5273 7.86866 16.9247C9.25503 18.5691 11.8289 16.1773 12.9234 14.8971L13.0646 14.7474C13.809 13.9479 14.3839 12.9859 14.9406 12.0628C14.9406 12.0628 15.4522 11.2178 15.4766 11.1788C15.7928 11.1205 16.1736 11.0295 16.6028 10.9059C16.5966 10.9253 14.9609 13.6747 15.1278 15.0394C15.1797 15.4558 15.1401 16.9767 16.625 17.4381C18.6041 17.7698 20.1844 16.2356 21.5786 14.8707C21.5786 14.8707 21.8161 14.6434 21.9505 14.5137C21.9165 14.6497 21.8722 14.8313 21.8722 14.8313C21.2928 16.8463 22.0738 17.2692 22.5623 17.4251C24.0388 17.8544 25.8028 15.7093 25.8085 15.7093C25.7627 16.385 25.629 16.9439 26.3413 17.3925C27.0135 17.6332 27.6939 17.2662 28.2112 16.9217C30.074 15.6089 31.5748 13.554 32.7869 11.7778H32.0137C32.0045 11.7778 30.1058 14.5299 28.8728 15.1281C28.8709 15.1281 28.6464 15.2433 28.5172 15.1521C28.3571 15.0156 28.4202 14.7317 28.5191 14.5306C28.5253 14.5176 33.2798 6.27142 33.2798 6.27142H31.035C31.035 6.27142 30.7898 6.66814 30.7698 6.69417C30.7547 6.6812 30.7187 6.61299 30.6938 6.58031C29.303 4.65645 26.1535 7.61569 23.7823 11.0474C22.8694 12.367 21.7071 13.8527 20.5019 14.9251C20.5019 14.9251 18.7164 16.5618 17.9536 15.3859C17.6747 14.8918 17.7605 14.1695 17.9178 13.6952C18.806 11.1667 20.3365 8.87203 22.0782 7.48753C22.5698 7.1043 23.1043 6.99346 23.3694 7.15599C23.6221 7.30573 23.6629 7.6759 23.503 7.92946C23.0974 7.91649 22.7724 8.03977 22.5083 8.31277C21.9878 8.85879 21.807 9.38536 21.9724 9.87943C22.7763 11.0233 24.3794 8.76137 24.3019 7.38344C24.2742 6.88938 24.0107 6.42151 23.6173 6.1938C23.031 5.84299 22.1367 5.93384 21.5579 6.21351C20.783 6.50588 19.5566 7.52625 18.8406 8.31935C17.9394 9.31396 16.3936 10.4188 15.9103 10.2951C16.0683 9.8725 17.3739 7.2012 16.0004 6.20037ZM26.8232 10.1522C27.2599 9.5478 28.5309 7.92928 28.8408 7.65636C29.8829 6.73955 30.2994 7.14294 30.3355 7.42873C29.3629 9.17061 28.215 11.1661 27.1357 12.9602C27.138 12.9538 26.798 13.4736 26.798 13.4736C26.3213 14.2013 25.8414 14.8254 25.0585 15.2608C24.9469 15.2935 24.7628 15.3066 24.6404 15.2152C24.4929 15.1177 24.4348 14.9552 24.4514 14.7861C24.4984 14.2273 25.0673 12.5182 26.8232 10.1522ZM14.611 11.1986C14.611 11.1986 14.5914 11.2573 14.5818 11.2764C14.5793 11.2764 13.603 12.8687 13.603 12.8687C13.0138 13.6553 12.2782 14.6435 11.3586 15.1178C11.0861 15.2087 10.7092 15.2674 10.5172 15.0271C10.1102 14.5395 10.32 13.8635 10.4904 13.3176L10.5508 13.1226C11.0394 11.7968 11.8147 10.6266 12.5694 9.54114C12.5788 9.53475 12.6 9.52826 12.6076 9.52826C12.6095 9.53475 12.6125 9.53475 12.6137 9.5478C13.0873 10.4576 13.9752 10.8799 14.6393 11.0752C14.6433 11.0752 14.6476 11.0817 14.6476 11.0947C14.6477 11.1141 14.6369 11.1403 14.611 11.1986ZM15.5359 9.32035C15.5316 9.33332 15.1011 10.3213 15.1011 10.3213C15.0389 10.3732 14.9404 10.3473 14.8277 10.3213L14.6344 10.2886C14.0275 10.1002 13.5698 9.69718 13.4287 9.21626C13.2341 8.28027 14.0337 7.54579 14.3859 7.27944C14.7239 7.04524 15.2494 6.92179 15.5546 7.16239C15.7428 7.38344 15.8141 7.66933 15.8141 7.9815C15.8142 8.40381 15.6838 8.87824 15.5359 9.32035ZM43.9151 12.336C43.6986 11.8681 43.1848 11.5691 42.6372 11.6015C40.8589 11.7641 39.1195 13.2265 38.2061 15.3258C37.7269 16.4048 37.4653 17.2952 37.2938 18.7121C37.8469 18.0753 38.9748 17.0289 40.2548 16.4569C40.2548 16.4569 40.4289 15.0985 41.3171 13.8895C41.6531 13.3889 42.3256 12.583 43.0808 12.7974C43.7407 13.0184 43.5087 14.8449 42.6317 16.6125C41.9829 17.9126 40.99 19.2129 39.9853 20.1097C39.0971 20.8636 37.7829 21.7736 36.6332 21.0717C35.909 20.6429 35.5396 19.7456 35.6176 18.5887C35.9636 15.3065 37.4578 12.5116 39.596 9.32675C41.8006 6.36938 44.2309 3.33403 47.5048 1.71534C48.1726 1.37741 48.791 1.29943 49.3255 1.50743C49.3255 1.50743 46.2523 3.19735 44.7873 6.32382C44.4147 7.11691 43.8963 8.18906 44.4183 9.13811C44.691 9.632 45.1752 9.67107 45.5652 9.64505C47.3609 9.22896 48.5211 7.5521 49.469 6.0183C50.0185 4.85486 50.507 3.6979 50.507 2.41092C50.507 2.25496 50.4989 2.04705 50.4858 1.89092C51.3436 1.43611 53.1029 2.24191 53.1029 2.24191C54.4776 2.69707 57.4048 4.93959 58.3922 5.36837C58.8739 4.80948 59.6654 3.9646 60.1111 3.54203L59.4659 3.14549C58.433 2.515 57.3412 1.91694 56.2667 1.32554C53.8262 -0.00673775 51.8396 0.461127 50.8287 0.825169C50.4313 0.968068 50.0683 1.09161 50.0683 1.09161C49.318 0.272666 48.0874 0.350466 47.1807 0.571609C43.9201 1.50752 40.8927 3.78884 37.6471 7.74731C35.2608 10.8478 33.7807 13.5257 32.9918 16.171C32.3837 17.9519 32.1988 20.5712 33.6831 22.1247C34.945 23.4439 36.6183 23.1581 37.7999 22.6838C40.3601 21.4228 42.6611 18.7058 43.8077 15.5793C44.0845 14.65 44.3915 13.3371 43.9151 12.336ZM49.8022 2.54103C49.4633 6.42791 46.442 8.7095 45.6944 8.89121C45.2413 8.98207 44.4683 8.78073 45.1585 7.14951C46.1747 4.95238 47.9098 3.08714 49.7713 2.1316C49.8167 2.29413 49.8154 2.39786 49.8022 2.54103ZM67.7244 3.03482C66.0992 3.95794 64.4144 4.55574 62.3751 4.34783C61.81 4.98497 61.2596 5.64138 60.7524 6.31725C63.6148 7.04524 66.6492 5.42681 68.3416 3.88654C70.132 2.33303 71.05 0.376755 71.05 0.376755C71.05 0.376755 69.708 1.91055 67.7244 3.03482ZM37.0107 6.2716H34.8789L33.6763 8.22547H35.8077L37.0107 6.2716Z" fill="#F5EDED"/>
<path d="M62.3666 20.8431C62.1374 20.999 61.8154 20.8791 61.9357 20.5217C62.2357 19.6118 63.4281 17.7574 63.4281 17.7574L66.7493 11.8668H64.4744C64.3662 12.0444 64.1351 12.4522 64.1351 12.4522C64.0298 12.2769 63.7151 11.8871 63.5855 11.8028C63.0297 11.4516 62.2143 11.6177 61.6518 11.9361C59.206 13.3662 57.4215 16.1918 56.014 18.3953C56.014 18.3953 54.5326 20.8448 53.7102 21.0269C53.0682 21.079 53.1345 20.2141 53.1623 20.0126C53.4105 18.5564 53.987 17.1721 54.5677 15.9176C55.7491 15.0987 57.0972 14.0263 58.3224 12.8499C60.9812 10.3082 63.2228 7.42883 63.5504 6.78538C63.5504 6.78538 63.1958 6.85696 62.777 6.86984C60.7315 9.72321 56.5456 13.8702 55.2765 14.4876C55.8387 13.1353 59.471 6.68129 62.5618 3.59399L63.0483 3.12586C63.8004 2.39138 64.5796 1.63745 65.1869 1.51391C65.2511 1.50743 65.3337 1.51391 65.405 1.66365C65.4321 2.23551 65.2192 2.65808 64.975 3.139L64.6327 3.84107C64.6327 3.84107 65.1175 3.75003 65.436 3.64577C65.8054 2.95063 66.2146 2.17041 66.0637 1.24117C66.0134 0.942137 65.7969 0.714688 65.514 0.662644C64.592 0.487151 63.5872 1.16941 62.7785 1.72209L62.7459 1.74145C58.5893 4.99785 55.0796 9.6907 52.0109 16.0995C51.7885 16.2682 50.9293 16.4699 50.7832 16.3723C51.0863 15.7485 51.4678 14.9099 51.6587 13.9999C51.6917 13.7398 51.7224 13.4735 51.7224 13.2135C51.7224 12.6541 51.5882 12.1278 51.0871 11.764C50.4995 11.4715 49.7733 11.6081 49.2836 11.8289C47.0902 12.7388 45.4508 14.9879 44.2677 16.8401C43.6314 18.0169 42.9971 19.2772 42.8214 20.7204C42.6977 21.8512 42.9495 22.5793 43.5925 22.9433C44.2537 23.2811 45.0858 22.93 45.4128 22.7612C47.6349 21.5911 49.1876 19.2449 50.4115 17.0999C50.4601 17.0935 51.1284 17.0741 51.6339 16.9439C51.6406 16.9439 51.6434 16.9439 51.6546 16.9507C51.6256 17.0478 51.3644 17.8281 51.3644 17.8281C50.5887 20.1027 50.23 21.6498 50.9627 22.5662C52.0097 23.8597 53.7432 22.5209 55.1533 20.7527C54.8506 22.8715 55.9487 23.2032 56.7858 23.0408C57.7474 22.781 58.8189 21.7537 59.3162 21.2274C59.1565 21.8448 59.1998 22.95 60.0746 23.0603C60.6741 23.1711 61.1229 22.845 61.642 22.5654C63.5043 21.5513 65.7336 18.1723 66.3124 17.1954H65.5535C64.7306 18.439 63.6836 20.0692 62.3666 20.8431ZM45.6505 20.6168C45.5324 20.4412 45.4932 20.2494 45.4893 20.0419C45.4667 18.7673 46.8379 16.485 47.8057 15.2417H47.8078C48.2133 16.1298 49.1318 16.7007 49.6862 16.9413C48.9977 18.4753 46.6359 21.7607 45.6505 20.6168ZM50.075 16.2555C50.0094 16.3013 48.8512 15.911 48.6273 14.8386C48.4374 13.9153 49.0733 13.1939 49.6884 12.8303C49.9524 12.6221 50.3501 12.5509 50.6419 12.6545C50.9126 12.8368 50.986 13.162 50.986 13.5124C50.986 13.7273 50.9575 13.9481 50.9324 14.1495L50.9269 14.1952C50.7329 14.9158 50.4465 15.6083 50.075 16.2555ZM59.3645 20.2073C59.3635 20.2073 59.1447 20.4023 59.1447 20.4023C58.8322 20.6817 58.5107 20.9806 58.1226 20.8311C58.0154 20.7922 57.94 20.6493 57.9219 20.5384C57.9042 19.7389 58.2642 18.9982 58.6134 18.2767L58.7029 18.0882C59.7072 16.4113 60.8746 14.4354 62.589 13.0642C62.8779 12.8557 63.1914 12.6806 63.5223 12.8172C63.5984 12.8886 63.6871 13.0121 63.6871 13.1355C63.6871 13.1746 63.6523 13.2786 63.6323 13.311C63.1534 14.0848 62.6974 14.8971 62.254 15.677C61.3874 17.2175 60.4883 18.8096 59.3645 20.2073Z" fill="#F5EDED"/>
</svg>
