<svg width="29" height="28" viewBox="0 0 29 28" fill="none" xmlns="http://www.w3.org/2000/svg">
<g clip-path="url(#clip0_55_23)">
<path d="M28.347 14.2613C28.347 13.117 28.2542 12.282 28.0532 11.4161H14.9867V16.5808H22.6565C22.5019 17.8643 21.6669 19.7972 19.8112 21.096L19.7852 21.269L23.9166 24.4695L24.2028 24.4981C26.8316 22.0703 28.347 18.4982 28.347 14.2613Z" fill="white"/>
<path d="M14.9868 27.8691C18.7443 27.8691 21.8988 26.6319 24.2029 24.4981L19.8113 21.096C18.6361 21.9156 17.0588 22.4877 14.9868 22.4877C11.3065 22.4877 8.18295 20.0601 7.06948 16.7045L6.90627 16.7184L2.61038 20.043L2.5542 20.1992C4.84275 24.7454 9.54363 27.8691 14.9868 27.8691Z" fill="white"/>
<path d="M7.06943 16.7045C6.77563 15.8386 6.6056 14.9107 6.6056 13.952C6.6056 12.9933 6.77563 12.0655 7.05397 11.1995L7.04619 11.0151L2.69646 7.63708L2.55415 7.70478C1.61093 9.59133 1.0697 11.7099 1.0697 13.952C1.0697 16.1942 1.61093 18.3126 2.55415 20.1992L7.06943 16.7045Z" fill="white"/>
<path d="M14.9868 5.41622C17.6 5.41622 19.3628 6.54504 20.368 7.48837L24.2957 3.65343C21.8835 1.41125 18.7443 0.0350037 14.9868 0.0350037C9.54363 0.0350037 4.84275 3.15858 2.5542 7.70477L7.05402 11.1995C8.18295 7.844 11.3065 5.41622 14.9868 5.41622Z" fill="white"/>
</g>
<defs>
<clipPath id="clip0_55_23">
<rect width="27.93" height="27.93" fill="white" transform="translate(0.749878 0.0350037)"/>
</clipPath>
</defs>
</svg>
