<svg width="42" height="34" viewBox="0 0 42 34" fill="none" xmlns="http://www.w3.org/2000/svg">
<path d="M0.539917 7.48106C0.539917 5.29229 1.17996 3.42355 2.52313 2.08038L4.85906 4.41632C2.25917 7.00687 4.52969 15.0612 11.9323 22.4708C19.3348 29.8803 27.3938 32.1485 29.9914 29.5533L32.3273 31.8892C27.9451 36.2715 17.9637 33.1623 9.60802 24.8044C3.81256 19.0066 0.539917 12.4286 0.539917 7.48106Z" fill="#F8FCFA"/>
<path d="M15.2703 33.9028C13.0816 33.9028 11.2128 33.2628 9.86731 31.9196L12.2032 29.5837C14.7985 32.1789 22.8528 29.9084 30.2624 22.5011C37.6719 15.0939 39.9378 7.03956 37.3426 4.44433L39.6785 2.1084C44.0631 6.49061 40.9516 16.4721 32.5936 24.8277C26.7958 30.6325 20.2178 33.9028 15.2703 33.9028Z" fill="white"/>
<path d="M33.3668 21.485C31.9489 17.4018 29.0523 13.0382 25.2097 9.19796C16.8541 0.839989 6.8726 -2.27148 2.49039 2.11307C2.17971 2.42609 2.44834 3.19928 3.09306 3.844C3.73778 4.48872 4.51097 4.75502 4.82165 4.44434C7.41921 1.84911 15.4735 4.11964 22.8808 11.5292C26.3847 15.0331 28.9962 18.9458 30.2553 22.5665C31.3579 25.7411 31.2504 28.3012 29.9657 29.586C29.6526 29.8967 29.9236 30.6722 30.566 31.3146C31.2084 31.957 31.9839 32.2279 32.2969 31.9149C34.5417 29.6701 34.9225 25.9606 33.3668 21.485Z" fill="white"/>
<path d="M39.6738 2.11308C37.4243 -0.136421 33.7195 -0.517178 29.2392 1.04089C25.1583 2.45647 20.7925 5.35536 16.9522 9.19564C8.59656 17.5513 5.48509 27.5327 9.86731 31.9173C10.1803 32.228 10.9535 31.9593 11.5982 31.3169C12.243 30.6746 12.5116 29.899 12.1986 29.586C9.59634 26.9908 11.8739 18.9365 19.2835 11.5269C22.7874 8.023 26.7001 5.41142 30.3208 4.15235C33.4953 3.05213 36.0555 3.15725 37.3426 4.44201C37.6532 4.75269 38.4288 4.48406 39.0712 3.83934C39.7135 3.19462 39.9845 2.42376 39.6738 2.11308Z" fill="white"/>
</svg>
