<svg width="53" height="42" viewBox="0 0 53 42" fill="none" xmlns="http://www.w3.org/2000/svg">
<path fill-rule="evenodd" clip-rule="evenodd" d="M35.4612 7.88096C39.447 7.65904 42.528 9.52907 44.5773 11.6854C46.6436 13.8596 48.0672 16.7009 48.847 19.4939C49.6265 22.2857 49.8351 25.2882 49.1882 27.8465C48.567 30.3032 46.9105 33.114 43.1594 34.0148C39.6313 34.8619 36.5384 33.6292 34.3319 32.1384C32.1188 30.643 30.2446 28.5464 28.7713 26.5799C28.0571 25.6266 27.4079 24.6641 26.8338 23.7527C26.2594 24.6641 25.6102 25.6266 24.896 26.5799C23.4227 28.5464 21.5486 30.643 19.3353 32.1384C17.129 33.6292 14.036 34.8619 10.5079 34.0148C6.75687 33.114 5.10024 30.3032 4.47914 27.8465C3.83235 25.2882 4.04069 22.2857 4.8202 19.4939C5.60006 16.7009 7.02377 13.8596 9.09005 11.6854C11.1393 9.52907 14.2202 7.65904 18.2062 7.88096C21.9452 8.08914 24.6632 10.1263 26.3565 11.8508L26.8338 12.3566L27.3109 11.8508C29.004 10.1263 31.722 8.08914 35.4612 7.88096ZM17.7542 13.1184C16.838 13.0674 15.642 13.4437 14.2856 14.8709C12.9462 16.2803 11.8355 18.3598 11.198 20.6428C10.5603 22.9269 10.4685 25.1557 10.8847 26.8018C11.2437 28.2219 11.8189 28.7304 12.1744 28.9077L12.3212 28.9682L12.38 28.9847C12.8869 29.1064 13.7179 29.0734 15.1277 28.1209C16.5307 27.1729 17.9651 25.6487 19.2958 23.8728C19.8892 23.0808 20.4389 22.2691 20.9336 21.4884L21.5 20.5696L22.0093 19.7L22.4569 18.8989L22.8387 18.1859L23.1501 17.5803C22.8092 17.033 22.3204 16.3246 21.7063 15.6227C20.3028 14.0184 18.8966 13.182 17.7542 13.1184ZM35.913 13.1184C34.7707 13.182 33.3646 14.0184 31.961 15.6227C31.3468 16.3246 30.8581 17.033 30.5172 17.5803L31.011 18.5302L31.4263 19.2897C31.5009 19.4233 31.5782 19.5602 31.6581 19.7L32.1673 20.5696L32.7338 21.4884C33.2284 22.2691 33.7782 23.0808 34.3716 23.8728C35.7021 25.6487 37.1366 27.1729 38.5395 28.1209C39.8487 29.0054 40.6587 29.097 41.1737 29.0081L41.2874 28.9847C41.5713 28.9165 42.3408 28.5497 42.7827 26.8018C43.1988 25.1557 43.1071 22.9269 42.4694 20.6428C41.8318 18.3598 40.7211 16.2803 39.3816 14.8709C38.0254 13.4437 36.8294 13.0674 35.913 13.1184Z" fill="white"/>
</svg>
