<svg width="21" height="21" viewBox="0 0 21 21" fill="none" xmlns="http://www.w3.org/2000/svg">
<g clip-path="url(#clip0_55_39)">
<path fill-rule="evenodd" clip-rule="evenodd" d="M18.63 4.1067C18.63 5.23092 17.7016 6.14511 16.56 6.14511C15.4184 6.14511 14.49 5.23092 14.49 4.1067C14.49 2.98247 15.4184 2.06829 16.56 2.06829C17.7016 2.06829 18.63 2.98247 18.63 4.1067ZM12.5659 3.0392H3.95266L5.12325 1.91095L3.65975 0.480974L0 4.09126L0.0103443 4.10371L0 4.11467L3.65975 7.71898L5.12325 6.25415L3.95266 5.07811H12.5659C13.0275 7.1166 14.6328 8.16012 16.56 8.16012C18.8463 8.16012 20.7 6.34679 20.7 4.09425C20.7 1.84274 18.8463 0 16.56 0C14.6328 0 13.0275 1.00071 12.5659 3.0392ZM18.63 16.3446C18.63 17.4689 17.7016 18.3831 16.56 18.3831C15.4184 18.3831 14.49 17.4689 14.49 16.3446C14.49 15.2204 15.4184 14.3062 16.56 14.3062C17.7016 14.3062 18.63 15.2204 18.63 16.3446ZM12.5659 15.2702H3.95266L5.12325 14.1449L3.65975 12.7179L0 16.3282L0.0103443 16.3417L0 16.3526L3.65975 19.9569L5.12325 18.4891L3.95266 17.3086H12.5659C13.0275 19.3471 14.6328 20.3941 16.56 20.3941C18.8463 20.3941 20.7 18.5827 20.7 16.3312C20.7 14.0797 18.8463 12.234 16.56 12.234C14.6328 12.234 13.0275 13.2317 12.5659 15.2702Z" fill="white"/>
</g>
<defs>
<clipPath id="clip0_55_39">
<rect width="20.7" height="20.3941" fill="white"/>
</clipPath>
</defs>
</svg>
