{
    "asset" : {
        "generator" : "Khronos glTF Blender I/O v3.4.50",
        "version" : "2.0"
    },
    "extensionsUsed" : [
        "KHR_materials_transmission",
        "KHR_materials_specular",
        "KHR_materials_ior"
    ],
    "scene" : 0,
    "scenes" : [
        {
            "name" : "Scene",
            "nodes" : [
                0,
                1,
                2
            ]
        }
    ],
    "nodes" : [
        {
            "mesh" : 0,
            "name" : "ITSA logo p.001",
            "translation" : [
                0,
                0,
                0.02880583330988884
            ]
        },
        {
            "mesh" : 1,
            "name" : "itsa shirts-1(1).001",
            "translation" : [
                0,
                0,
                0.008631467819213867
            ]
        },
        {
            "mesh" : 2,
            "name" : "Male_Tshirt"
        }
    ],
    "materials" : [
        {
            "alphaMode" : "BLEND",
            "doubleSided" : true,
            "name" : "ITSA logo p.001",
            "pbrMetallicRoughness" : {
                "baseColorTexture" : {
                    "index" : 0
                },
                "metallicFactor" : 0,
                "roughnessFactor" : 0.5
            }
        },
        {
            "alphaMode" : "BLEND",
            "doubleSided" : true,
            "name" : "itsa shirts-1(1).001",
            "pbrMetallicRoughness" : {
                "baseColorTexture" : {
                    "index" : 1
                },
                "metallicFactor" : 0,
                "roughnessFactor" : 0.5
            }
        },
        {
            "alphaMode" : "BLEND",
            "doubleSided" : true,
            "extensions" : {
                "KHR_materials_transmission" : {
                    "transmissionFactor" : 1
                },
                "KHR_materials_specular" : {
                    "specularColorFactor" : [
                        1,
                        1,
                        1
                    ]
                },
                "KHR_materials_ior" : {
                    "ior" : 1
                }
            },
            "name" : "BlackItsa_001",
            "pbrMetallicRoughness" : {
                "baseColorFactor" : [
                    0.0030352442990988493,
                    0.00972120463848114,
                    0.029556836932897568,
                    1
                ],
                "metallicFactor" : 0
            }
        }
    ],
    "meshes" : [
        {
            "name" : "ITSA logo p.001",
            "primitives" : [
                {
                    "attributes" : {
                        "POSITION" : 0,
                        "TEXCOORD_0" : 1,
                        "NORMAL" : 2
                    },
                    "indices" : 3,
                    "material" : 0
                }
            ]
        },
        {
            "name" : "itsa shirts-1(1).001",
            "primitives" : [
                {
                    "attributes" : {
                        "POSITION" : 4,
                        "TEXCOORD_0" : 5,
                        "NORMAL" : 6
                    },
                    "indices" : 7,
                    "material" : 1
                }
            ]
        },
        {
            "name" : "Male_Tshirt.001",
            "primitives" : [
                {
                    "attributes" : {
                        "POSITION" : 8,
                        "TEXCOORD_0" : 9,
                        "NORMAL" : 10
                    },
                    "indices" : 11,
                    "material" : 2
                }
            ]
        }
    ],
    "textures" : [
        {
            "sampler" : 0,
            "source" : 0
        },
        {
            "sampler" : 0,
            "source" : 1
        }
    ],
    "images" : [
        {
            "bufferView" : 4,
            "mimeType" : "image/png",
            "name" : "ITSA logo p"
        },
        {
            "bufferView" : 9,
            "mimeType" : "image/png",
            "name" : "itsa shirts-1(1)"
        }
    ],
    "accessors" : [
        {
            "bufferView" : 0,
            "componentType" : 5126,
            "count" : 741,
            "max" : [
                0.7445777058601379,
                0.9008029699325562,
                0.392647385597229
            ],
            "min" : [
                0.48816871643066406,
                0.644393801689148,
                0.30782654881477356
            ],
            "type" : "VEC3"
        },
        {
            "bufferView" : 1,
            "componentType" : 5126,
            "count" : 741,
            "type" : "VEC2"
        },
        {
            "bufferView" : 2,
            "componentType" : 5126,
            "count" : 741,
            "type" : "VEC3"
        },
        {
            "bufferView" : 3,
            "componentType" : 5123,
            "count" : 1536,
            "type" : "SCALAR"
        },
        {
            "bufferView" : 5,
            "componentType" : 5126,
            "count" : 1089,
            "max" : [
                0.7872042655944824,
                0.13510608673095703,
                0.5729052424430847
            ],
            "min" : [
                0.185985267162323,
                -1.1100598573684692,
                0.15769827365875244
            ],
            "type" : "VEC3"
        },
        {
            "bufferView" : 6,
            "componentType" : 5126,
            "count" : 1089,
            "type" : "VEC2"
        },
        {
            "bufferView" : 7,
            "componentType" : 5126,
            "count" : 1089,
            "type" : "VEC3"
        },
        {
            "bufferView" : 8,
            "componentType" : 5123,
            "count" : 6144,
            "type" : "SCALAR"
        },
        {
            "bufferView" : 10,
            "componentType" : 5126,
            "count" : 11400,
            "max" : [
                1.541725754737854,
                1.5906580686569214,
                0.602486252784729
            ],
            "min" : [
                -1.4275460243225098,
                -1.4966323375701904,
                -0.6334623694419861
            ],
            "type" : "VEC3"
        },
        {
            "bufferView" : 11,
            "componentType" : 5126,
            "count" : 11400,
            "type" : "VEC2"
        },
        {
            "bufferView" : 12,
            "componentType" : 5126,
            "count" : 11400,
            "type" : "VEC3"
        },
        {
            "bufferView" : 13,
            "componentType" : 5123,
            "count" : 65559,
            "type" : "SCALAR"
        }
    ],
    "bufferViews" : [
        {
            "buffer" : 0,
            "byteLength" : 8892,
            "byteOffset" : 0,
            "target" : 34962
        },
        {
            "buffer" : 0,
            "byteLength" : 5928,
            "byteOffset" : 8892,
            "target" : 34962
        },
        {
            "buffer" : 0,
            "byteLength" : 8892,
            "byteOffset" : 14820,
            "target" : 34962
        },
        {
            "buffer" : 0,
            "byteLength" : 3072,
            "byteOffset" : 23712,
            "target" : 34963
        },
        {
            "buffer" : 0,
            "byteLength" : 1341186,
            "byteOffset" : 26784
        },
        {
            "buffer" : 0,
            "byteLength" : 13068,
            "byteOffset" : 1367972,
            "target" : 34962
        },
        {
            "buffer" : 0,
            "byteLength" : 8712,
            "byteOffset" : 1381040,
            "target" : 34962
        },
        {
            "buffer" : 0,
            "byteLength" : 13068,
            "byteOffset" : 1389752,
            "target" : 34962
        },
        {
            "buffer" : 0,
            "byteLength" : 12288,
            "byteOffset" : 1402820,
            "target" : 34963
        },
        {
            "buffer" : 0,
            "byteLength" : 283122,
            "byteOffset" : 1415108
        },
        {
            "buffer" : 0,
            "byteLength" : 136800,
            "byteOffset" : 1698232,
            "target" : 34962
        },
        {
            "buffer" : 0,
            "byteLength" : 91200,
            "byteOffset" : 1835032,
            "target" : 34962
        },
        {
            "buffer" : 0,
            "byteLength" : 136800,
            "byteOffset" : 1926232,
            "target" : 34962
        },
        {
            "buffer" : 0,
            "byteLength" : 131118,
            "byteOffset" : 2063032,
            "target" : 34963
        }
    ],
    "samplers" : [
        {
            "magFilter" : 9729,
            "minFilter" : 9987,
            "wrapS" : 33071,
            "wrapT" : 33071
        }
    ],
    "buffers" : [
        {
            "byteLength" : 2194152,
            "uri" : "data:application/octet-stream;base64,"
        }
    ]
}
